<svg width="25" height="24" viewBox="0 0 25 24" fill="none" xmlns="http://www.w3.org/2000/svg">
<g id="Book" clip-path="url(#clip0_10_1677)">
<path id="Vector" d="M4.2815 24H18.464C18.8618 24 19.2434 23.842 19.5247 23.5607C19.806 23.2794 19.964 22.8978 19.964 22.5V6.75C19.964 6.55109 19.885 6.36032 19.7443 6.21967C19.6037 6.07902 19.4129 6 19.214 6H6.5C6.4625 6 6.389 6.006 6.3185 6.0105L4.2815 6C3.023 6 2 5.0385 2 3.7815C2 2.523 2.9915 1.5 4.25 1.5H21.5V18.75C21.5 19.164 21.8 19.5 22.2155 19.5C22.631 19.5 23 19.164 23 18.75V0.75C23 0.336 22.6295 0 22.2155 0H4.2815C3.28881 0.000303738 2.33615 0.391403 1.62959 1.08869C0.923041 1.78598 0.519404 2.7334 0.506 3.726L0.5 3.7185V20.2185C0.500199 21.2214 0.89867 22.1831 1.6078 22.8922C2.31692 23.6013 3.27864 23.9998 4.2815 24Z" fill="black"/>
</g>
<defs>
<clipPath id="clip0_10_1677">
<rect width="24" height="24" fill="white" transform="translate(0.5)"/>
</clipPath>
</defs>
</svg>
